<?xml version="1.0"?>
<svg width="132" height="40" xmlns="http://www.w3.org/2000/svg" xmlns:svg="http://www.w3.org/2000/svg">
 <g class="layer">
  <title>Layer 1</title>
  <path class="ccustom" d="m23.23,11.39l2,0l0,13.92l6,0l0,2l-8,0l0,-15.92zm14.23,0c1.19,0 2.35,0.35 3.33,1.01c0.99,0.66 1.76,1.6 2.21,2.69c0.46,1.1 0.58,2.31 0.34,3.47c-0.23,1.16 -0.8,2.23 -1.64,3.07c-0.84,0.84 -1.91,1.41 -3.07,1.64c-1.16,0.24 -2.37,0.12 -3.47,-0.34c-1.09,-0.45 -2.03,-1.22 -2.69,-2.21c-0.66,-0.98 -1.01,-2.14 -1.01,-3.33c0,-0.79 0.16,-1.57 0.46,-2.3c0.3,-0.72 0.74,-1.39 1.3,-1.94c0.55,-0.56 1.22,-1 1.94,-1.3c0.73,-0.3 1.51,-0.46 2.3,-0.46l0,0zm0,10c0.79,0 1.56,-0.23 2.22,-0.67c0.66,-0.44 1.17,-1.07 1.48,-1.8c0.3,-0.73 0.38,-1.53 0.22,-2.31c-0.15,-0.78 -0.53,-1.49 -1.09,-2.05c-0.56,-0.56 -1.27,-0.94 -2.05,-1.09c-0.78,-0.16 -1.58,-0.08 -2.31,0.22c-0.73,0.31 -1.36,0.82 -1.8,1.48c-0.44,0.66 -0.67,1.43 -0.67,2.22c0.01,1.06 0.43,2.07 1.18,2.82c0.75,0.74 1.76,1.16 2.82,1.16l0,0.02zm-4,3.94l8,0l0,2l-8,0l0,-2zm25.6,2l-2,0l0,-1.43c-1.29,0.9 -2.83,1.39 -4.4,1.39c-1.34,0.01 -2.67,-0.32 -3.85,-0.96c-1.18,-0.63 -2.18,-1.56 -2.91,-2.68c-0.73,-1.13 -1.17,-2.42 -1.27,-3.76c-0.1,-1.34 0.14,-2.68 0.69,-3.9c0.56,-1.23 1.41,-2.29 2.48,-3.1c1.08,-0.8 2.33,-1.33 3.66,-1.52c1.33,-0.19 2.69,-0.04 3.95,0.43c1.25,0.47 2.37,1.24 3.25,2.26l-1.47,1.31c-0.67,-0.75 -1.51,-1.31 -2.45,-1.65c-0.95,-0.34 -1.96,-0.43 -2.95,-0.28c-0.99,0.16 -1.92,0.56 -2.72,1.17c-0.79,0.6 -1.42,1.4 -1.83,2.32c-0.41,0.91 -0.58,1.91 -0.5,2.91c0.07,1 0.4,1.96 0.95,2.8c0.54,0.84 1.29,1.53 2.17,2.01c0.88,0.47 1.87,0.72 2.87,0.72c0.83,0 1.65,-0.18 2.41,-0.52c0.75,-0.35 1.43,-0.85 1.97,-1.48l-5.4,0l0,-2l7.37,0l-0.02,5.96zm7.36,-15.9c1.19,0 2.35,0.35 3.33,1.01c0.99,0.66 1.76,1.6 2.21,2.69c0.46,1.1 0.58,2.31 0.34,3.47c-0.23,1.16 -0.8,2.23 -1.64,3.07c-0.84,0.84 -1.91,1.41 -3.07,1.64c-1.16,0.24 -2.37,0.12 -3.47,-0.34c-1.09,-0.45 -2.03,-1.22 -2.69,-2.21c-0.66,-0.98 -1.01,-2.14 -1.01,-3.33c-0.01,-0.79 0.15,-1.58 0.45,-2.31c0.3,-0.74 0.74,-1.4 1.3,-1.97c0.56,-0.56 1.23,-1 1.96,-1.31c0.73,-0.3 1.52,-0.45 2.31,-0.45l-0.02,0.04zm0,10c0.79,0 1.56,-0.23 2.22,-0.67c0.66,-0.44 1.17,-1.07 1.48,-1.8c0.3,-0.73 0.38,-1.53 0.22,-2.31c-0.15,-0.78 -0.53,-1.49 -1.09,-2.05c-0.56,-0.56 -1.27,-0.94 -2.05,-1.09c-0.78,-0.16 -1.58,-0.08 -2.31,0.22c-0.73,0.31 -1.36,0.82 -1.8,1.48c-0.44,0.66 -0.67,1.43 -0.67,2.22c0.02,1.05 0.45,2.06 1.2,2.8c0.75,0.73 1.77,1.15 2.82,1.14l-0.02,0.06zm-4,3.94l8,0l0,2l-8,0l0,-2zm12.13,-13.98l2,0l0,15.9l-2,0l0,-15.9zm4.77,0l2,0c0.1,-0.01 0.21,-0.01 0.31,0c0.84,-0.09 1.68,0 2.49,0.25c0.8,0.26 1.54,0.69 2.16,1.25c0.63,0.56 1.13,1.25 1.48,2.02c0.34,0.77 0.52,1.6 0.52,2.45c0,0.84 -0.18,1.67 -0.52,2.44c-0.35,0.77 -0.85,1.46 -1.48,2.02c-0.62,0.56 -1.36,0.99 -2.16,1.25c-0.81,0.25 -1.65,0.34 -2.49,0.25l-0.31,0l0,4l-2,0l0,-15.93zm2,2l0,7.91l0.31,0c0.56,0.08 1.14,0.03 1.68,-0.14c0.55,-0.16 1.05,-0.44 1.48,-0.82c0.43,-0.37 0.78,-0.83 1.01,-1.35c0.24,-0.52 0.36,-1.09 0.36,-1.65c0,-0.57 -0.12,-1.14 -0.36,-1.66c-0.23,-0.52 -0.58,-0.98 -1.01,-1.35c-0.43,-0.38 -0.93,-0.66 -1.48,-0.82c-0.54,-0.17 -1.12,-0.22 -1.68,-0.14c-0.11,0.01 -0.22,0.03 -0.32,0.07l0.01,-0.05zm14.41,-0.85l-1.48,1.17c-0.26,-0.27 -0.58,-0.46 -0.94,-0.54c-0.36,-0.09 -0.74,-0.07 -1.08,0.04c-0.35,0.12 -0.66,0.34 -0.89,0.63c-0.24,0.28 -0.38,0.63 -0.42,1l0,0.16c0,0.88 0.61,1.47 1.8,1.55c4.58,0.28 6.68,2.43 6.68,5.27l0,0.18c-0.12,1.12 -0.56,2.19 -1.26,3.07c-0.71,0.88 -1.66,1.54 -2.73,1.91c-1.07,0.36 -2.22,0.4 -3.32,0.12c-1.09,-0.27 -2.09,-0.86 -2.86,-1.68l1.53,-1.18c0.36,0.38 0.79,0.68 1.27,0.88c0.49,0.2 1.01,0.28 1.53,0.26c0.96,0.05 1.91,-0.27 2.64,-0.9c0.73,-0.63 1.19,-1.52 1.28,-2.48l0,-0.14c0,-2.67 -2.62,-3.16 -4.89,-3.38c-2.1,-0.2 -3.61,-1.51 -3.61,-3.4l0,-0.08c0.07,-0.98 0.52,-1.9 1.25,-2.56c0.74,-0.67 1.69,-1.02 2.68,-1c0.52,-0.02 1.04,0.08 1.53,0.28c0.48,0.2 0.92,0.49 1.28,0.87l0.01,-0.05zm11.5,12.72c2.49,0 4.46,-2.69 4.46,-6l0,-8l2,0l0,8c0,4.4 -2.88,7.95 -6.42,7.95c-3.54,0 -6.42,-3.55 -6.42,-7.95l0,-8l2,0l0,8c-0.08,3.36 1.89,6.05 4.37,6.05l0.01,-0.05zm21.81,2l-2,0l0,-9.9l-4.61,6l-4.61,-6l0,9.93l-2,0l0,-15.9l6.6,8.69l6.6,-8.69l0.02,15.87z" fill="#ffffff" id="svg_1"/>
  <path class="ccustom" d="m13.63,9c0,-1.44 -0.57,-2.83 -1.59,-3.85c-1.02,-1.02 -2.41,-1.59 -3.85,-1.59c-1.44,0 -2.83,0.57 -3.85,1.59c-1.02,1.02 -1.59,2.41 -1.59,3.85l0,16.45l4.48,3.21l0,7.82l1.92,0l0,-7.82l4.48,-3.21l0,-16.45zm-1.92,9.2l-2.56,2.56l0,-2.4l2.56,-2.56l0,2.4zm-7,-2.4l2.56,2.56l0,2.4l-2.56,-2.56l0,-2.4zm7,-2.72l-3.52,3.52l-3.52,-3.6l0,-2.4l3.52,3.52l3.52,-3.52l0,2.48zm-3.52,-7.6c0.77,0 1.53,0.26 2.14,0.73c0.61,0.47 1.06,1.13 1.26,1.88l-3.4,3.39l-3.4,-3.39c0.2,-0.75 0.64,-1.42 1.25,-1.9c0.61,-0.48 1.37,-0.74 2.15,-0.75l0,0.04zm-3.52,19l0,-3.6l2.56,2.56l0,2.86l-2.56,-1.82zm4.48,1.83l0,-2.87l2.56,-2.56l0,3.59l-2.56,1.84z" fill="#ffa600" id="svg_2"/>
 </g>
</svg>